<svg width="1378" height="1914" viewBox="0 0 1378 1914" fill="none" xmlns="http://www.w3.org/2000/svg">
<g clip-path="url(#clip0)">
<g filter="url(#filter0_d)">
<path d="M737.768 1787.67C788.219 1623.96 771.736 1430.49 1078.28 1155.3L1096.52 1161.38C1131.59 1120.04 1171.87 1089.14 1191.78 1017.47L1171.51 978.962L1080.3 983.016L1049.9 1009.36C1109.73 845.056 1250.17 722.948 1374.19 618.185C928.343 250.569 490.999 461.26 425.635 508.736C899.644 306.818 1166.21 526.303 1285.01 628.319C1014.49 812.116 916.554 1147.77 910.049 1262.72L960.72 1230.29L987.069 1116.79C1019.01 1116.49 1052.64 1119.57 1074.22 1098.55C1043.14 1114.05 1012.07 1107.46 980.989 1147.19L954.64 1238.4L905.996 1266.77L881.674 1248.53C742.166 1352.82 735.711 1514.13 664.802 1647.82" fill="url(#paint0_linear)"/>
<path d="M737.768 1787.67C788.219 1623.96 771.736 1430.49 1078.28 1155.3L1096.52 1161.38C1131.59 1120.04 1171.87 1089.14 1191.78 1017.47L1171.51 978.962L1080.3 983.016L1049.9 1009.36C1109.73 845.056 1250.17 722.948 1374.19 618.185C928.343 250.569 490.999 461.26 425.635 508.736C899.644 306.818 1166.21 526.303 1285.01 628.319C1014.49 812.116 916.554 1147.77 910.049 1262.72L960.72 1230.29L987.069 1116.79C1019.01 1116.49 1052.64 1119.57 1074.22 1098.55C1043.14 1114.05 1012.07 1107.46 980.989 1147.19L954.64 1238.4L905.996 1266.77L881.674 1248.53C742.166 1352.82 735.711 1514.13 664.802 1647.82" fill="url(#paint1_linear)"/>
</g>
<path d="M1080.3 983.015C1093.89 1017.72 1145.25 1013.36 1074.22 1098.55L1091.3 1087.28C1078.79 1108.58 1074.17 1113.59 1065.62 1096.4L1035.71 1118.81C1049.76 1119.66 1069.11 1131.89 1096.52 1161.38C1161.71 1105.25 1171.42 1066.59 1191.78 1017.47C1189.93 1000.75 1184.78 986.207 1171.51 978.962C1112.33 970.72 1110.71 981.664 1080.3 983.015Z" fill="#FA7A35" fill-opacity="0.817734"/>
<g filter="url(#filter1_d)">
<path d="M464.5 483.5C868.365 305.126 1144.07 449.292 1372 615L1285 630C1061.09 450.568 853.922 373.002 431 504L464.5 483.5Z" fill="url(#paint2_linear)"/>
</g>
<g filter="url(#filter2_d)">
<path d="M954.5 1241.5L909.5 1261C953.648 1007.95 1031.53 851.213 1281.5 627.5L1373 612C1142.97 814.076 1044.35 969.135 954.5 1241.5Z" fill="#C4C4C4"/>
<path d="M954.5 1241.5L909.5 1261C953.648 1007.95 1031.53 851.213 1281.5 627.5L1373 612C1142.97 814.076 1044.35 969.135 954.5 1241.5Z" fill="url(#paint3_linear)"/>
</g>
<path fill-rule="evenodd" clip-rule="evenodd" d="M864.73 1232.45C797.017 1181.26 717.039 1130.03 660.712 1101.76C649.098 1095.93 646.172 1093.87 646.781 1091.93C649.616 1082.9 653.566 1065.24 654.302 1058.3C654.783 1053.77 655.352 1050.06 655.566 1050.06C656.834 1050.06 703.5 1071.54 718.206 1078.89C779.156 1109.36 818.981 1136.05 860.748 1174.42C875.308 1187.79 876.897 1188.88 877.535 1185.91C885.003 1151.13 891.92 1128.17 904.856 1095.21C932.939 1023.65 972.543 951.137 1054.36 821.467C1071.27 794.666 1098.17 752.041 1114.13 726.743C1149.72 670.317 1185.05 611.239 1185.05 608.13C1185.05 606.728 1175.34 599.398 1160.33 589.467C1055.6 520.193 946.591 481.826 827.634 472.375C799.833 470.167 728.438 471.428 701.347 474.607C642.013 481.569 584.622 495.04 530.081 514.805C508.626 522.58 488.836 530.51 487.39 531.91C487.163 532.13 489.204 540.938 491.924 551.484C520.326 661.571 533.143 768.6 528.688 858.478C527.782 876.746 526.455 896.208 525.739 901.726C525.023 907.243 524.416 912.802 524.392 914.078C524.355 916.02 521.297 915.378 505.631 910.137C495.337 906.693 485.893 903.875 484.645 903.875C482.74 903.875 482.514 902.558 483.236 895.635C487.851 851.364 488.095 750.337 483.679 711.822C475.291 638.649 460.44 581.005 435.679 525.515L428.688 509.846L447.496 502.524C473.561 492.376 524.293 475.282 551.252 467.564C749.773 410.732 918.78 420.952 1081.14 499.61C1143.5 529.818 1204.31 568.783 1279.37 626.627C1280.9 627.803 1277.76 630.783 1265.15 640.159C1126.98 742.837 1016.11 899.344 950.914 1083.74C936.357 1124.91 918.069 1193.13 909.035 1239.96C906.907 1250.99 904.774 1260.4 904.296 1260.86C903.818 1261.33 886.013 1248.54 864.73 1232.45Z" fill="#FBF7F7"/>
<g filter="url(#filter3_d)">
<path fill-rule="evenodd" clip-rule="evenodd" d="M882.003 1245.46C809.174 1189.34 733.401 1139.91 666.592 1104.93C655.359 1099.05 646.169 1094.02 646.169 1093.75C646.169 1093.48 647.76 1087.32 649.704 1080.05C651.649 1072.79 653.667 1063.07 654.189 1058.45C654.711 1053.84 655.386 1050.06 655.689 1050.06C657.616 1050.06 702.872 1071.18 725.219 1082.51C785.003 1112.82 825.038 1140.32 866.432 1179.53C875.072 1187.71 878.346 1188.78 878.346 1183.41C878.346 1177.96 888.884 1139.13 895.828 1118.99C922.324 1042.14 966.754 959.633 1066.85 801.402C1088.79 766.719 1113.84 727.056 1122.51 713.261C1142.33 681.741 1176.09 625.717 1181.58 615.239C1186.49 605.849 1189.05 608.897 1159.97 589.471C1132.39 571.049 1109.09 557.694 1075.71 541.171C1003.47 505.418 931.632 484.15 849.968 474.342C823.84 471.204 736.832 470.766 710.663 473.641C638.583 481.558 573.825 497.396 508.903 522.987C491.48 529.855 487.158 532.092 487.734 533.94C488.132 535.217 491.734 549.757 495.739 566.251C512.09 633.606 521.924 693.284 527.402 758.407C530.659 797.133 529.318 879.075 524.913 910.459L524.09 916.326L503.332 909.743L482.575 903.159L483.424 893.127C487.286 847.469 488.316 774.071 485.615 736.909C479.788 656.725 462.108 583.323 433.59 520.915L428.541 509.866L446.706 502.807C529.755 470.531 614.984 447.833 689.165 438.234C760.717 428.976 830.492 429.444 893.915 439.608C998.296 456.337 1099.62 499.521 1205.83 572.552C1221.76 583.506 1281.07 627.162 1281.07 627.934C1281.07 628.164 1273.82 633.807 1264.95 640.473C1136.65 736.921 1034.44 874.194 967.801 1039.57C943.213 1100.58 921.58 1174.79 908.342 1243.54C906.597 1252.61 904.777 1260.46 904.298 1261C903.819 1261.53 893.786 1254.54 882.003 1245.46Z" fill="black"/>
</g>
<path fill-rule="evenodd" clip-rule="evenodd" d="M501.506 1019.39C497.273 1012.54 493.228 1000.15 490.515 985.728C487.673 970.614 487.059 943.467 489.503 941.017C490.819 939.699 493.909 940.167 503.119 943.078C509.671 945.15 515.892 947.405 516.943 948.091C518.517 949.118 518.327 952.437 515.868 966.915C514.226 976.583 512.882 984.966 512.882 985.544C512.882 986.121 518.882 989.399 526.216 992.827L539.549 999.06L531.59 1005.65C519.078 1016 507.748 1024.26 506.061 1024.26C505.212 1024.26 503.162 1022.07 501.506 1019.39Z" fill="black"/>
<path fill-rule="evenodd" clip-rule="evenodd" d="M478.019 1032.86C472.639 1031.43 467.89 1029.91 467.466 1029.49C466.711 1028.73 470.795 996.11 472.323 990.702C472.816 988.955 474.8 993.572 477.765 1003.36C480.332 1011.84 484.4 1022.59 486.805 1027.25C489.28 1032.05 490.445 1035.67 489.489 1035.6C488.561 1035.53 483.4 1034.3 478.019 1032.86Z" fill="black"/>
<path fill-rule="evenodd" clip-rule="evenodd" d="M539.396 1051.32C525.996 1046.69 514.64 1042.74 514.161 1042.54C513.682 1042.34 523.258 1034.52 535.443 1025.16L557.596 1008.13L563.338 1010.03C566.497 1011.07 569.418 1012.8 569.83 1013.88C570.435 1015.45 564.903 1058.87 564.013 1059.54C563.874 1059.64 552.797 1055.94 539.396 1051.32Z" fill="black"/>
<path fill-rule="evenodd" clip-rule="evenodd" d="M589.033 1068.66C583.415 1066.11 582.857 1065.42 583.564 1061.88C583.997 1059.71 585.488 1049.88 586.876 1040.03C588.264 1030.18 589.539 1021.9 589.709 1021.64C589.879 1021.39 599.491 1025.26 611.068 1030.24L632.117 1039.31L631.397 1044.69C630.51 1051.3 624.289 1062.2 619.678 1065.23C615.937 1067.68 602.732 1071.53 598.157 1071.51C596.581 1071.5 592.475 1070.22 589.033 1068.66Z" fill="black"/>
<path fill-rule="evenodd" clip-rule="evenodd" d="M530.005 989.681C523.346 986.461 517.802 983.72 517.683 983.59C517.213 983.072 522.852 952.124 523.541 951.434C523.947 951.028 532.668 954.465 542.921 959.071C561.377 967.362 561.542 967.478 559.437 970.691C558.268 972.475 557.311 976.405 557.311 979.424C557.311 984.305 556.54 985.501 550.347 990.224C546.517 993.144 543.097 995.534 542.747 995.534C542.397 995.534 536.663 992.9 530.005 989.681Z" fill="#2D2D2D"/>
<path d="M663.471 698.245C675.128 744.603 658.137 842.231 644.534 913.09C705.608 920.648 755.963 958.216 803.641 1003.28C848.617 914.424 891.949 838.778 923.224 763.104C846.264 730.032 777.036 685.848 663.471 698.245Z" stroke="#BD4040" stroke-width="3.3"/>
<path d="M632.373 656.695C617.174 684.322 651.658 838.891 613.118 943.492C681.732 946.39 759.763 981.49 822.895 1044.83C871.372 934.841 965.09 787.739 983.261 732.035C872.785 667.642 670.928 654.553 632.373 656.695Z" fill="white" stroke="black" stroke-width="3.5"/>
<path fill-rule="evenodd" clip-rule="evenodd" d="M861.864 1169.39C840.726 1149.55 806.107 1123.28 784.141 1110.41C777.298 1106.4 775.205 1104.4 775.184 1101.85C775.169 1100.03 777.091 1084 779.456 1066.24C781.82 1048.48 783.755 1032.5 783.755 1030.73C783.755 1028.12 776.905 1022.89 747.567 1003.11C727.664 989.698 703.716 974.12 694.35 968.496C684.984 962.873 678.079 958.271 679.006 958.271C682.963 958.271 709.913 969.341 726.854 977.924C757.017 993.206 786.728 1014.14 812.771 1038.47L823.871 1048.83L829.205 1036.87C844.328 1002.96 865.467 962.426 914.67 872.997C962.123 786.746 987.856 734.824 985.244 730.598C983.909 728.437 950.497 712.511 932.437 705.426C896.877 691.477 845.435 678.188 790.504 668.76C743.511 660.695 682.327 654.491 649.427 654.454C632.166 654.435 631.867 654.49 629.482 658.13C626.063 663.348 625.333 689.923 627.415 733.397C629.546 777.917 629.595 839.326 627.515 861.531C625.235 885.886 621.309 907.543 615.566 927.458C612.837 936.917 610.849 944.906 611.147 945.211C611.445 945.516 617.229 946.271 624.002 946.888C630.774 947.506 640.863 948.823 646.421 949.817C655.341 951.411 656.223 951.844 653.94 953.514C652.026 954.914 644.816 955.395 626.189 955.367L601.024 955.33L590.991 949.869C585.474 946.866 575.685 941.358 569.239 937.63C562.792 933.902 551.183 927.993 543.441 924.497C527.022 917.085 528.42 921.704 531.543 885.179C534.269 853.284 533.963 784.752 530.941 750.459C525.384 687.409 516.239 633.065 499.747 565.091C495.754 548.634 493.054 534.705 493.734 534.067C495.878 532.055 528.476 519.638 552.295 511.76C602.93 495.014 653.481 484.193 710.663 477.86C736.837 474.961 823.813 475.406 849.682 478.572C949.472 490.783 1036.19 520.161 1122.7 571.066C1139.48 580.936 1178.79 606.562 1179.89 608.345C1180.81 609.837 1138.47 680.129 1101.18 738.993C992.85 910.029 965.707 955.622 933.525 1020.62C904.429 1079.38 886.201 1126.92 877.483 1166.8C876.104 1173.11 874.606 1178.69 874.153 1179.21C873.7 1179.72 868.17 1175.31 861.864 1169.39Z" fill="#2D2D2D"/>
<path fill-rule="evenodd" clip-rule="evenodd" d="M664.579 1049.07L656.49 1045.41L655.454 1030.94C654.423 1016.53 654.436 1016.45 658.179 1013.23C662.245 1009.74 670.306 1007.02 676.66 1007.01C681.827 1007 683.471 1011.21 681.979 1020.64C680.73 1028.53 674.848 1050.13 673.514 1051.72C673.049 1052.28 669.028 1051.09 664.579 1049.07Z" fill="#2D2D2D"/>
<path fill-rule="evenodd" clip-rule="evenodd" d="M609.972 1025.1L590.256 1016.5L590.624 1006.74C590.826 1001.37 591.436 996.972 591.98 996.97C592.523 996.969 593.196 994.549 593.476 991.593L593.983 986.219L596.476 991.66C597.847 994.653 598.786 997.997 598.563 999.092C598.34 1000.19 603.575 1005.48 610.197 1010.85C620.803 1019.45 632.01 1031.94 630.295 1033.24C629.961 1033.49 620.815 1029.83 609.972 1025.1Z" fill="#2D2D2D"/>
<path fill-rule="evenodd" clip-rule="evenodd" d="M568.242 1007.81C566.848 1007.21 564.736 1006.32 563.548 1005.84L561.387 1004.96L563.568 1002.28C564.767 1000.81 566.104 999.096 566.539 998.475C567.325 997.353 567.343 997.352 569.745 998.237L572.162 999.128L571.852 1002.42C571.682 1004.23 571.541 1006.46 571.539 1007.36C571.535 1009.26 571.593 1009.25 568.242 1007.81Z" fill="white"/>
<path d="M665.908 700.298C677.565 746.656 660.574 844.284 646.971 915.143C708.044 922.701 758.4 960.269 806.077 1005.34C851.053 916.477 894.386 840.831 925.661 765.157C848.7 732.085 779.472 687.901 665.908 700.298Z" fill="white" stroke="black" stroke-width="3.3"/>
<path fill-rule="evenodd" clip-rule="evenodd" d="M812.419 1031.29C759.026 982.638 696.946 951.992 633.847 943.136L616.515 940.703L619.832 930.258C633.081 888.535 636.732 834.39 632.58 741.208C630.301 690.051 630.351 671.67 632.795 661.93L633.69 658.366L657.486 659.303C738.231 662.482 835.941 678.693 901.746 699.827C930.816 709.163 976.62 728.851 979.278 733.152C981.212 736.281 959.593 780.569 927.861 838.485C916.577 859.079 900.27 888.827 891.622 904.592C866.825 949.797 843.566 994.507 833.097 1017.1C827.8 1028.53 823.076 1038.31 822.6 1038.83C822.124 1039.35 817.543 1035.96 812.419 1031.29ZM812.957 997.391C815.963 991.282 830.878 962.421 846.101 933.256C861.324 904.09 881.769 864.104 891.535 844.398C908.592 809.978 929.139 765.011 928.227 764.098C927.039 762.91 858.062 732.052 841.799 725.433C822.406 717.54 797.936 709.245 782.849 705.449C753.145 697.976 713.639 694.625 680.069 696.731L663.09 697.796L663.93 701.587C664.391 703.673 665.542 712.759 666.487 721.779C669.775 753.162 664.301 807.015 649.598 887.946C646.822 903.226 645.076 916.17 645.718 916.71C646.36 917.25 651.712 918.477 657.611 919.436C698.071 926.013 743.2 951.677 792.354 996.063C799.843 1002.82 806.312 1008.39 806.73 1008.43C807.149 1008.47 809.95 1003.5 812.957 997.391Z" fill="black"/>
<path fill-rule="evenodd" clip-rule="evenodd" d="M622.459 1030.1C617.663 1028.15 590.883 1016.66 590.493 1016.39C590.469 1016.37 590.63 1012.55 590.851 1007.89C591.179 1000.99 591.448 998.994 592.302 997.118C592.879 995.852 593.536 993.164 593.761 991.145L594.17 987.474L595.78 990.898C596.666 992.781 597.718 995.725 598.118 997.439C598.981 1001.14 599.932 1002.22 610.045 1011.01C621.262 1020.76 632.209 1032.89 629.713 1032.8C629.346 1032.79 626.082 1031.57 622.459 1030.1Z" fill="white"/>
<path fill-rule="evenodd" clip-rule="evenodd" d="M531.252 989.956C525.121 987.015 519.591 984.362 518.964 984.06C518.337 983.758 517.824 983.333 517.824 983.116C517.824 981.412 523.26 952.226 523.651 951.836C524.665 950.821 558.435 966.066 559.593 968.062C559.955 968.685 559.784 969.531 558.967 971.168C558.271 972.562 557.571 975.492 557.128 978.861C556.468 983.89 556.285 984.436 554.727 986.058C552.991 987.863 544.153 994.68 543.029 995.079C542.683 995.202 537.383 992.897 531.252 989.956Z" fill="white"/>
<path fill-rule="evenodd" clip-rule="evenodd" d="M668.57 1050.38C666.898 1049.74 663.565 1048.35 661.164 1047.3L656.798 1045.38L656.51 1042.27C656.351 1040.56 655.932 1034.4 655.578 1028.59C654.825 1016.19 654.935 1015.76 659.702 1012.49C666.043 1008.14 677.86 1005.93 680.331 1008.63C681.793 1010.23 682.157 1011.75 682.077 1015.96C681.974 1021.37 678.069 1038.17 674.504 1048.53C673.364 1051.85 672.841 1052.01 668.57 1050.38Z" fill="white"/>
<path fill-rule="evenodd" clip-rule="evenodd" d="M856.794 1163.89C837.962 1147.28 807.346 1124.07 789.208 1112.67C780.715 1107.33 775.951 1103.43 775.951 1101.82C775.951 1100.44 777.919 1083.68 780.325 1064.56C783.825 1036.75 784.346 1029.39 782.93 1027.68C779.778 1023.89 730.425 990.383 696.774 969.196C690.669 965.353 685.928 961.954 686.238 961.643C687.186 960.695 711.216 971.079 728.656 979.973C757.275 994.567 782.283 1012.14 810.729 1037.64C817.728 1043.92 823.973 1048.49 824.606 1047.8C825.239 1047.11 828.187 1041.06 831.157 1034.36C843.719 1006.03 865.069 965.219 918.516 867.392C962.789 786.357 988.126 734.392 985.526 729.96C984.395 728.034 946.478 710.281 928.888 703.443C889.379 688.082 821.569 672.112 758.198 663.242C711.128 656.654 642.572 651.667 639.066 654.576C638.102 655.376 635.816 655.862 633.986 655.655C629.788 655.182 626.627 660.583 627.286 667.104C627.545 669.666 627.151 671.762 626.41 671.762C625.572 671.762 625.545 687.579 626.34 713.683C627.042 736.739 627.581 779.466 627.539 808.631C627.451 868.903 626.342 880.323 616.808 919.221C613.684 931.962 611.473 943.283 611.893 944.378C612.419 945.749 617.545 946.913 628.34 948.113C647.697 950.266 652.697 951.237 652.697 952.846C652.697 953.536 640.835 954.1 626.337 954.1H599.978L587.999 947.293C581.411 943.55 566.025 935.327 553.807 929.02L531.592 917.554L531.927 903.938C532.111 896.45 532.429 860.979 532.633 825.113C532.947 770.019 532.602 756.234 530.407 736.255C524.353 681.138 518.053 643.572 505.531 587.92C501.096 568.214 496.691 548.122 495.741 543.272C493.695 532.823 490.701 535.024 523.71 522.702C573.658 504.056 622.3 491.367 674.195 483.444C714.852 477.237 730.173 476.412 789.271 477.246C838.433 477.94 846.443 478.392 867.675 481.671C977.147 498.579 1064.65 532.675 1160.4 595.729C1170.45 602.347 1178.68 608.405 1178.68 609.19C1178.68 611.459 1143.86 669.206 1107.26 727.656C1088.74 757.216 1058.53 805.471 1040.12 834.889C982.694 926.649 958.609 968.405 932.925 1020.74C905.33 1076.97 889.213 1117.83 879.641 1155.82C876.612 1167.84 873.75 1177.68 873.281 1177.68C872.811 1177.68 865.392 1171.47 856.794 1163.89Z" fill="white"/>
<path d="M782.521 1029.06L772.489 1105.01C707.53 1068.44 703.805 1058.91 675.137 1054.89C679.256 1037.1 691.109 1008.74 680.117 1005.62C672.114 1003.35 654.064 1009.02 652.818 1018.31C641.643 1000.54 624.59 977.529 600.454 957.57M782.521 1029.06C654.876 940.531 660.115 953.179 652.101 956.679C641.259 958.417 602.205 956.561 600.454 957.57M782.521 1029.06C755.077 1019.73 684.673 984.33 652.101 1008.99C651.803 1024.2 660.471 1050.51 641.969 1099.38C640.256 1103.9 642.353 1109.88 634.013 1118.66C630.704 1118.45 625.374 1117.09 622.994 1116.25M631.953 1109.82C631.211 1110.76 627.756 1111.04 626.761 1111.29L631.953 1109.82ZM631.953 1109.82C635.168 1112.53 636.267 1097.24 634.662 1097.52C630.055 1098.31 622.176 1100.56 624.611 1103.87L631.953 1109.82ZM254.318 948.721C250.764 952.368 240.269 952.981 232.775 947.751C229.744 945.635 229.681 932.376 226.743 933.697C224.03 934.917 221.54 936.165 219.255 937.433C185.25 956.313 197.043 979.813 202.796 987.493C209.877 994.201 217.623 1000.43 225.917 1006.21C299.991 1052.31 413.974 1069.51 492.316 1075.05C528.191 1076.46 581.243 1076.89 579.009 1075.63C587.984 1076.5 618.429 1070.96 623.419 1065.36C638.751 1045.04 641.88 1029.14 600.034 1000.72C602.466 996.253 594.491 982.157 592.362 982.26C589.746 982.387 592.69 994.355 591.123 995.198C581.826 1000.2 578.264 999.29 574.597 997.466C567.886 994.128 576.404 1000.34 566.576 995.177M459.437 947.484C471.219 953.054 477.803 943.469 482.667 939.285C492.046 931.217 544.586 958.456 561.608 965.514C565.945 967.312 561.968 970.032 559.551 973.8C557.723 976.649 558.456 981.355 559.788 986.412M600.454 957.57C592.891 951.316 588.289 952.215 578.253 944.855C549.331 926.908 515.841 913.816 478.374 903.798C422.028 891.436 386.855 886.582 343.553 884.107C292.209 883.073 261.914 887.53 238.789 894.631M376.571 1094.62C386.301 1094.89 426.796 1112.24 482.414 1109.1C483.817 1109.02 480.859 1132.18 491.271 1136.78C496.536 1139.1 504.396 1140.55 510.751 1140.85L376.571 1094.62ZM376.571 1094.62C374.995 1098.18 369.725 1108.72 367.836 1109.79C362.866 1112.63 352.513 1111.46 345.853 1110.08M358.265 1092.27C358.18 1092.42 336.231 1083.23 336.586 1085.63C336.842 1087.36 336.613 1092.62 337.45 1095.58M358.265 1092.27C354.734 1094.5 358.709 1107.04 355.4 1104.88C351.621 1102.41 354.658 1106.77 347.598 1104.6L358.265 1092.27ZM206.181 1058.32C180.916 1046.39 186.144 1026.08 186.087 1025.33C184.885 1009.48 167.085 1003.29 164.1 981.76C160.294 965.345 179.355 910.049 239.921 894.369M347.953 925.129C349.812 925.528 355.542 923.104 355.053 912.061C355.491 913.491 338.601 911.119 338.453 912.594C338.172 915.397 337.27 920.344 339.39 920.909M509.547 1133.4C504.449 1135.09 499.315 1130.58 497.974 1130.44C496.172 1130.26 492.308 1120.28 496.185 1115.39C498.56 1112.4 513.835 1112.94 520.233 1112.84C525.078 1112.77 519.926 1125 518.162 1126.11L509.547 1133.4ZM200.798 1032.94C199.443 1035.26 219.531 1041.91 219.832 1044.2C220.371 1048.31 217.279 1051.29 215.758 1052.57L200.798 1032.94ZM206.314 1049.71C205.951 1049.17 197.952 1037.89 200.727 1032.51L206.314 1049.71ZM264.653 934.12C264.615 931.758 266.497 926.941 266.454 924.375C266.378 919.742 289.728 924.785 323.151 913.898C330.1 911.634 328.742 922.628 331.053 928.2L264.653 934.12ZM343.851 933.141C345.128 933.474 348.155 934.078 349.727 934.219C370.845 936.117 354.391 907.63 365.613 911.534C389.094 913.529 441.16 921.475 445.452 925.535C446.801 926.811 444.822 932.715 446.289 937.446L343.851 933.141ZM615.914 1110.73C613.892 1108.44 611.653 1105.49 610.483 1105.06C594.354 1099.04 568.51 1118.1 540.119 1112.5C538.445 1112.17 535.818 1126.98 527.791 1135.28L615.914 1110.73ZM327.589 1102.48C328.076 1102.71 323.829 1094.4 325.499 1083.97C326.303 1078.95 318.854 1082.42 314.996 1081C284.593 1069.84 259.963 1055.38 236.853 1049.4C228.415 1047.22 226.242 1056.55 220.599 1059.38L327.589 1102.48ZM251.272 932.118C251.015 930.563 250.572 927.852 250.065 927.644C248.693 928.61 233.887 930.961 234.88 934.784C235.29 936.359 240.201 946.355 245.729 944.947C246.724 944.693 248.462 943.487 249.168 942.829L251.272 932.118ZM571.444 986.892C576.208 987.58 581.197 988.782 585.873 981.58C577.235 980.621 569.087 970.879 568.583 972.796C567.933 975.271 567.854 980.067 568.35 982.42L571.444 986.892ZM462.716 940.194C465.294 940.757 469.358 940.055 474.667 933.681C472.024 929.888 461.329 929.367 459.245 928.401C456.081 926.934 457.011 931.407 458.236 934.402L462.716 940.194Z" stroke="#FA7A35" stroke-width="2.5"/>
<path fill-rule="evenodd" clip-rule="evenodd" d="M494.864 1135.38C488.009 1132.4 485.947 1128.85 485.947 1120.03C485.947 1109.06 484.494 1107.87 471.035 1107.83C453.933 1107.78 419.302 1102.97 399.424 1097.9C377.252 1092.24 375.229 1092.41 371.2 1100.27C369.343 1103.89 366.812 1107.53 365.574 1108.35C362.223 1110.56 352.175 1110.21 352.175 1107.87C352.175 1106.76 353.444 1105.84 354.994 1105.84C356.701 1105.84 358.136 1103.07 358.632 1098.82C359.413 1092.13 359 1091.6 349.864 1087.67C337.236 1082.24 333.934 1082.39 333.934 1088.37C333.934 1091.02 332.621 1094.28 331.017 1095.61C328.568 1097.64 328 1096.63 327.47 1089.29C326.875 1081.04 326.445 1080.49 319.746 1079.39C315.844 1078.75 297.603 1071.74 279.209 1063.83C239.174 1046.59 233.477 1045.21 226.222 1050.91C220.297 1055.57 217.524 1054.52 220.596 1048.78C223.349 1043.64 221.931 1041.89 210.72 1036.59C205.471 1034.1 200.492 1031.72 199.656 1031.29C196.971 1029.92 198.034 1038.96 201.299 1045.28C206.449 1055.24 203.608 1056.22 195.529 1047.28C189.079 1040.14 188 1037.57 187.988 1029.33C187.976 1021.14 186.477 1017.51 177.939 1004.98C163.125 983.238 162.426 974.168 173.723 950.295C189.533 916.884 220.89 897.492 271.626 889.746C300.722 885.304 373.247 886.939 409.803 892.861C489.247 905.731 525.458 917.5 579.471 948.006C597.065 957.942 604.578 963.747 618.115 977.861C627.357 987.498 638.567 1000.74 643.026 1007.29L651.134 1019.19L651.021 1040.73C650.93 1058.17 649.786 1066.22 645.002 1083.09C640.582 1098.66 638.713 1102.87 637.579 1099.81C636.745 1097.55 635.181 1095.71 634.103 1095.71C629.355 1095.71 621.745 1099.91 621.745 1102.54C621.745 1106.76 617.067 1107.83 612.658 1104.61C607.38 1100.75 600.905 1101.06 582.096 1106.1C573.247 1108.47 559.681 1110.64 551.949 1110.93L537.891 1111.46L533.315 1121.82C530.799 1127.53 527.808 1132.19 526.669 1132.19C523.289 1132.19 520.476 1125.21 522.54 1121.95C525.391 1117.44 524.802 1112.49 521.254 1111.13C519.493 1110.45 513.027 1110.49 506.886 1111.21C497.814 1112.28 495.313 1113.42 493.548 1117.29C490.507 1123.97 494.307 1131.41 502.611 1135.04C507.411 1137.14 508.13 1137.97 505.202 1138.03C502.972 1138.08 498.32 1136.88 494.864 1135.38V1135.38ZM613.135 1072.72C622.431 1069.65 624.564 1067.86 629.954 1058.64C640.801 1040.09 636.005 1026.38 612.077 1007.54C606.412 1003.08 601.71 997.794 601.627 995.788C601.394 990.149 595.507 979.989 592.775 980.509C589.159 981.198 580.93 978.14 574.814 973.834C567.853 968.933 567.411 969.021 566.648 975.464C565.888 981.887 560.939 984.468 560.939 978.442C560.939 976.186 561.852 973.776 562.966 973.087C564.081 972.398 564.993 970.195 564.993 968.192C564.993 964.317 535.406 950.053 507.38 940.417C489.297 934.199 486.061 934.331 476.826 941.671C468.453 948.325 463.651 949.433 463.651 944.711C463.651 943.039 464.878 941.671 466.378 941.671C467.877 941.671 470.774 939.825 472.815 937.569C477.366 932.541 475.254 929.871 464.874 927.53C458.676 926.132 457.165 926.482 455.434 929.715C452.475 935.244 447.437 934.576 447.437 928.654C447.437 924.906 445.877 923.235 440.849 921.595C433.46 919.184 392.279 912.271 373.037 910.211C359.162 908.725 359.242 908.651 357.798 924.443C357.329 929.578 356.297 930.608 351.162 931.07L345.081 931.617L350.655 926.94C354.132 924.023 356.229 920.262 356.229 916.944C356.229 912.326 355.17 911.446 348.196 910.267C338.637 908.652 335.961 909.932 335.961 916.117C335.961 923.516 333.405 924.007 330.527 917.162C328.185 911.592 327.189 910.998 322.284 912.25C305.298 916.584 289.18 919.313 280.223 919.371C268.61 919.447 266.128 920.621 264.145 926.976C262.499 932.248 255.51 933.136 252.07 928.511C250.18 925.968 248.558 925.876 241.917 927.931C237.381 929.334 233.604 931.939 233.054 934.044C232.176 937.401 231.889 937.431 229.67 934.396C227.445 931.353 226.579 931.42 219.14 935.215C209.467 940.15 196.731 953.69 194.9 960.985C193.165 967.897 195.148 979.425 199.113 985.477C209.132 1000.77 258.848 1028.54 300.491 1042.11C344.742 1056.53 400.846 1067.94 458.584 1074.27C497.653 1078.55 598.544 1077.53 613.135 1072.72Z" fill="#FA7A35" fill-opacity="0.970443"/>
<path fill-rule="evenodd" clip-rule="evenodd" d="M735.247 1009.47C700.253 997.293 673.092 995.461 656.405 1004.16L648.559 1008.25L641.847 998.775C638.156 993.565 628.776 982.689 621.003 974.607L606.872 959.913H627.18C638.35 959.913 650.357 958.913 653.863 957.69C659.392 955.763 661.916 956.256 672.913 961.412C684.854 967.011 733.533 997.363 751.835 1010.62C762.193 1018.12 759.575 1017.94 735.247 1009.47Z" fill="#FA7A35" fill-opacity="0.970443"/>
<path fill-rule="evenodd" clip-rule="evenodd" d="M735.248 1080.51C715.739 1068.76 694.989 1057.73 689.137 1056C683.284 1054.27 678.52 1052.24 678.549 1051.48C678.72 1047.08 686.381 1022.48 686.482 1026.02C686.549 1028.38 688.494 1032.71 690.804 1035.65C698.516 1045.45 715.276 1041.32 717.994 1028.94C719.293 1023.03 716.518 1015.06 712.142 1012.13C707.2 1008.83 696.525 1010.61 691.578 1015.56L686.603 1020.53V1014.69C686.603 1011.48 685.029 1007.27 683.105 1005.35C679.791 1002.03 680.284 1001.93 692.423 1003.3C708.22 1005.09 731.874 1011.84 758.556 1022.19L778.824 1030.04L778.197 1041.09C777.852 1047.16 776.028 1063.33 774.143 1077.01L770.717 1101.88L735.248 1080.51ZM752.295 1059.07C758.331 1051.9 758.689 1049.08 754.577 1041.13C749.38 1031.08 736.131 1029.55 729.314 1038.22C716.307 1054.75 738.774 1075.14 752.295 1059.07Z" fill="#FA7A35" fill-opacity="0.970443"/>
<path fill-rule="evenodd" clip-rule="evenodd" d="M734.379 1056.04C729.992 1051.66 730.389 1044.37 735.256 1039.96C744.083 1031.98 756.398 1046.36 748.348 1055.26C744.009 1060.05 738.686 1060.35 734.379 1056.04Z" fill="#FA7A35" fill-opacity="0.970443"/>
<path fill-rule="evenodd" clip-rule="evenodd" d="M696.869 1034.55C692.243 1031.31 691.341 1023.87 695.116 1020.1C696.454 1018.76 700.541 1017.66 704.198 1017.66C709.533 1017.66 711.09 1018.63 712.073 1022.54C714.631 1032.74 705.064 1040.29 696.869 1034.55Z" fill="#FA7A35" fill-opacity="0.970443"/>
<path fill-rule="evenodd" clip-rule="evenodd" d="M740.382 1062.15C723.792 1060.28 723.978 1036.03 740.444 1034.68C753.701 1034.68 754.693 1051.43 754.693 1051.43C752.739 1053.88 747.423 1065.51 740.382 1062.15H740.382Z" stroke="#FA7A35" stroke-opacity="0.985222" stroke-width="4" stroke-linecap="round" stroke-linejoin="round"/>
<path fill-rule="evenodd" clip-rule="evenodd" d="M702.36 1039.29C685.77 1037.41 684.523 1012.45 703.855 1013.24C720.337 1013.24 714.521 1031.08 714.521 1031.08C714.521 1031.08 714.742 1035.97 702.36 1039.29Z" stroke="#FA7A35" stroke-opacity="0.985222" stroke-width="4" stroke-linecap="round" stroke-linejoin="round"/>
<path fill-rule="evenodd" clip-rule="evenodd" d="M577.52 997.092C576.731 996.835 575.287 996.273 574.31 995.843C573.081 995.302 572.144 995.124 571.265 995.263C569.968 995.47 568.906 995.085 569.145 994.496C569.219 994.315 570.004 992.928 570.891 991.413L572.503 988.659L575.728 988.639C579.253 988.617 580.926 988.167 583.105 986.657C584.323 985.814 587.084 982.576 588.034 980.88C588.256 980.482 588.75 980.425 590.246 980.623C591.694 980.815 591.991 980.946 591.442 981.149C590.047 981.665 589.754 983.252 590.019 988.865L590.264 994.048L587.654 995.279C584.887 996.584 581.373 997.623 579.863 997.584C579.362 997.57 578.308 997.349 577.52 997.092Z" fill="#FA7A35" fill-opacity="0.970443"/>
<path fill-rule="evenodd" clip-rule="evenodd" d="M629.473 1116.54C627.699 1116.17 626.127 1115.86 625.979 1115.85C625.445 1115.84 625.734 1115.23 626.949 1113.81C628.086 1112.48 628.418 1112.32 630.98 1111.87C632.994 1111.51 633.984 1111.15 634.532 1110.56C635.58 1109.44 636.469 1106.03 636.719 1102.16C636.916 1099.13 636.962 1098.98 637.423 1099.86C638.236 1101.41 638.92 1101 640.213 1098.2C642.035 1094.25 646.398 1079.35 648.423 1070.16C650.547 1060.52 651.117 1053.02 651.195 1033.62C651.254 1018.93 651.462 1018.69 652.226 1032.43C653.282 1051.43 650.313 1070.92 643.237 1091.43C641.834 1095.5 640.448 1100.04 640.157 1101.51C638.821 1108.31 638.485 1109.56 637.479 1111.47C636.169 1113.97 633.654 1117.29 633.102 1117.25C632.879 1117.24 631.246 1116.92 629.473 1116.54Z" fill="#FA7A35" fill-opacity="0.970443"/>
<path d="M610.078 1129.96L582.715 1153.78L559.407 1172.53L532.044 1220.66L534.071 1227.76L528.497 1234.85L531.538 1237.38L526.471 1250.05L529.511 1250.56L524.444 1255.63L523.937 1289.07C523.768 1295.82 526.475 1306.41 523.177 1312.12C522.018 1305.27 522.332 1295.97 519.377 1292.11C517.857 1289.29 516.336 1290.76 514.816 1291.09L517.35 1305.79L514.816 1307.31C509.022 1307.86 510.524 1321.54 514.816 1340.25L508.113 1343.98C508.387 1354.48 505.605 1358.89 506.695 1361.77C507.851 1364.82 501.715 1360.46 501.135 1361.53C502.138 1356.43 503.243 1348.17 502.042 1343.97C501.469 1341.97 498.805 1344.41 498.283 1341.98C496.71 1334.64 496.275 1324.27 495.055 1316.94L488.467 1298.19L475.293 1285.52L477.32 1302.75L477.826 1332.14L471.239 1340.75L467.186 1329.1V1317.44L466.679 1307.31V1299.71V1294.64L463.639 1286.03L456.545 1288.56L447.424 1286.03L440.33 1293.63L439.317 1301.23L441.343 1365.58L430.703 1313.9C427.999 1327.09 427.57 1339.27 424.369 1349.11C421.001 1341.33 421.811 1329.38 423.102 1316.94L415.501 1357.98V1391.93L420.062 1399.02L417.021 1405.1L416.515 1446.65L427.662 1447.16L428.676 1457.8H418.035L419.555 1460.84L422.089 1480.1L414.488 1478.58L410.941 1460.34H404.86L404.354 1448.68H410.941L405.367 1407.64L396.246 1400.04L403.847 1395.98L401.82 1370.65L394.726 1323.52L383.072 1299.71C382.069 1317.95 384.575 1340.7 384.657 1356.94C384.665 1358.6 380.538 1356.97 380.538 1356.97C378.769 1342.27 374.491 1332.29 376.991 1303.26L362.043 1326.82C358.578 1352.18 373.243 1371.07 355.963 1403.84C345.353 1377.12 357.313 1384.93 354.443 1370.9C351.571 1372.08 348.793 1373.83 346.589 1379.01L346.082 1361.78C341.918 1351.06 346.373 1340.33 346.589 1329.61L328.347 1268.8C330.956 1283.55 333.732 1298.1 332.401 1317.44C330.14 1318.32 328 1318.53 327.069 1312.09C325.504 1321.36 324.433 1328.77 318.467 1328.59C317.661 1310.67 318.329 1301.18 316.049 1293.45C315.348 1291.08 310.456 1290.81 310.927 1288.26C315.133 1265.51 309.063 1243 307.319 1225.22C305.448 1220.25 299.333 1211.44 298.241 1203.21C295.291 1180.99 283.449 1195.2 284.553 1192.24C292.383 1171.3 274.881 1156.77 260.991 1157.92C259.382 1158.05 264.672 1153.66 264.233 1152.18C262.487 1146.27 262.147 1140.46 263.995 1134.78C263.344 1123.97 243.598 1103.89 232.976 1092.33C231.864 1091.12 231.34 1101.02 230.207 1099.92C227.006 1096.81 224.177 1093.74 221.957 1090.78C220.34 1088.63 216.278 1093.85 216.563 1090.76C217.26 1083.19 212.726 1077.37 207.381 1073.2C205.572 1071.8 204.763 1079.93 202.561 1078.87L207.844 1048.39L216.335 1053.86L226.087 1066.7C234.344 1067.17 242.957 1074.66 256.901 1080.56C272.962 1084.94 263.263 1083.93 261.968 1087.65L286.29 1107.16L275.16 1066.81M610.078 1129.96C611.193 1125.31 612.517 1125.2 619.974 1119.23C620.525 1118.78 629.541 1108.54 630.162 1108.03L610.078 1129.96ZM278.436 1110.44C278.828 1117.81 276.315 1116.03 285.544 1129.74M278.436 1110.44L285.544 1129.74M278.436 1110.44C285.202 1118.51 274.202 1100.92 298.836 1134.8C294.628 1147.54 300.483 1157.41 301.306 1168.71C298.035 1158.08 292.594 1152.86 292.992 1139.18C292.84 1138.95 288.378 1137.96 289.099 1135.98C290.883 1131.09 288.364 1128.28 285.544 1129.74M341.015 1165.94C342.404 1150.29 345.862 1130.17 347.318 1115.43C347.647 1112.1 340.64 1100.52 355.167 1103.11L341.015 1165.94ZM341.015 1165.94L352.416 1166.95C348.162 1174.4 352.113 1184.02 363.31 1198.87L373.951 1168.98L375.471 1159.86L382.565 1160.36C378.203 1137.28 367.514 1114.39 364.324 1112.99L341.015 1165.94ZM630.162 1107.67L625.646 1104.9L610.716 1114.59L584.742 1124.89L575.621 1135.03L576.128 1122.36L577.648 1110.71L630.162 1107.67ZM498.134 1127.26C499.248 1128.03 512.487 1121.31 513.486 1122.16C522.169 1129.5 530.375 1143.13 528.497 1154.79C540.298 1145.57 552.659 1137.91 562.447 1140.1C557.008 1130.17 559.928 1122.79 561.433 1114.76L498.134 1127.26ZM451.984 1110.71C450.621 1119.03 452.479 1118.52 451.731 1124.39L448.184 1139.59C456.63 1148.2 455.337 1156.82 458.065 1165.43C467.078 1152.65 468.039 1141.91 483.654 1131.73L451.984 1110.71ZM428.783 1107.09C425.858 1113.28 432.586 1126.89 435.77 1138.58C432.076 1148.62 433.385 1147.4 432.223 1151.75L420.062 1175.06L412.968 1179.11L417.021 1201.91L419.048 1221.68L427.662 1210.02L433.236 1195.33L437.29 1196.85L449.958 1174.55L436.783 1144.15L439.823 1112.73L444.13 1108.93L428.783 1107.09ZM374.57 1101.33C374.844 1105.52 372.115 1112.28 378.512 1111.21C399.319 1138.89 410.593 1153.87 413.981 1167.46C419.355 1158.15 426.732 1148.18 428.422 1140.1L422.595 1127.17C418.589 1120.36 420.328 1112.79 419.925 1105.98L374.57 1101.33ZM245.123 952.837C245.921 950.061 279.707 1020.02 280.91 1031.36L245.123 952.837ZM291.43 1072C294.158 1080.36 299.242 1106.88 303.012 1122.36C306.006 1127.57 313.977 1129.1 309.523 1139.83C315.431 1142.31 320.546 1150.35 325.814 1157.32C323.351 1139.19 324.106 1122.79 325.307 1104.63C326.895 1102.28 329.546 1098.65 334.406 1096.45C340.168 1093.85 350.445 1096.02 354.443 1098.29L291.43 1072ZM258.654 1022.79C254.494 994.453 241.159 971.685 230.806 948.306L258.654 1022.79ZM354.01 920.38C353.989 920.564 345.469 919.982 344.331 919.627C323.247 923.624 328.032 947.074 325.231 978.71C324.892 986.292 324.767 994.515 324.981 1003.49C324.72 1002.52 316.534 992.205 291.731 964.011C282.792 953.703 273.513 944.942 269.426 939.069C263.843 931.044 235.22 930.744 238.166 937.49L354.01 920.38ZM351.058 922.66C351.048 922.724 347.009 923.623 344.9 929.618C341.891 937.881 344.541 942.027 344.739 942.566C347.575 950.281 346.322 969.765 338.409 982.87C336.298 986.366 339.502 989.661 338.246 990.719C336.864 991.883 345.811 996.469 345.862 998.244C345.977 1002.19 346.018 1005.96 346.017 1009.53C345.655 1037.55 345.799 1040.06 346.274 1041.14C348.401 1046 357.059 1046.78 357.647 1053.76L351.058 922.66ZM353.73 936.337C353.482 935.762 357.523 943.312 377.117 979.881C385.881 996.181 394.001 1011.14 395.076 1012.53C395.875 1013.57 392.835 1014.41 392.868 1016.33C392.992 1023.43 392.183 1029.44 389.679 1038.23C389.351 1039.38 389.588 1042.53 387.994 1043.5C386.775 1044.24 383.667 1042.73 383.304 1043.84C382.768 1045.48 385.783 1046.1 384.885 1047.52C383.703 1049.38 383.825 1051.81 384.056 1053.28C384.182 1054.08 382.313 1059.41 382.313 1059.41L353.73 936.337ZM362.903 925.038C364.431 927.891 397.049 985.175 404.142 1004.76C404.323 1005.26 408.147 1000.45 425.389 977.416C443.048 960.288 441.63 945.822 443.744 939.207C444.228 937.691 455.128 933.496 458.849 934.339C461.49 934.937 468.884 937.18 470.7 936.22L362.903 925.038ZM580.426 984.44C580.358 984.53 575.231 979.334 571.013 980.962C566.019 982.889 554.898 988.82 553.501 990.032C541.48 1000.46 508.516 1028.13 505.775 1026.8C488.444 1018.41 481.174 946.052 488.27 939.324L580.426 984.44ZM432.626 1067.59C432.553 1067.53 428.261 1060.46 423.193 1051.43C408.887 1023.83 405.495 1015.28 407.203 1013.32C417.037 1002.03 437.281 968.859 452.794 960.008C454.525 959.021 457.756 959.598 458.594 958.709C459.338 957.919 454.064 955.534 454.121 954.664C454.211 953.286 455.747 952.456 457.025 951.768C457.852 951.323 462.847 939.284 462.998 938.85L432.626 1067.59ZM388.929 1061.03C388.234 1058.12 400.246 1033.98 402.507 1028.84C403.529 1026.52 412.772 1065.13 414.324 1064.19L388.929 1061.03ZM471.791 1070.9C471.52 1071.02 474.947 1067.36 479.267 1062.31C494.363 1042.2 496.646 1037.25 494.585 1035.43C481.183 1023.59 465.273 951.174 470.709 949.32L471.791 1070.9ZM482.326 1072.76C481.949 1070.02 488.939 1058.46 495.429 1057.02C496.863 1056.71 491.542 1075.6 496.87 1073.53L482.326 1072.76ZM506.105 1074.23C505.832 1069.64 506.737 1049.78 505.896 1046.35C505.637 1045.29 520.824 1033.73 535.943 1022.27C548.556 1012.56 555.883 1006.88 560.097 1003.55C565.037 999.635 572.506 985.698 572.39 985.552L506.105 1074.23ZM561.149 1074.74C562.053 1074.06 563.45 1070.75 564.96 1065.91C572.575 1023.54 573.699 1002.09 573.479 998.944L561.149 1074.74ZM579.008 1075.63C579.932 1071.16 591.411 1009.28 588.667 997.956L579.008 1075.63ZM329.33 1047.39C331.172 1042.13 269.053 964.584 247.856 941.868C245.783 939.646 244.531 945.911 243.168 944.538L329.33 1047.39ZM213.324 1065.1L215.699 1071.89L225.739 1071.18C224.322 1070.16 221 1070.79 213.324 1065.1ZM229.539 1091.45L226.499 1080.3H235.113L233.086 1089.93L237.537 1091.2L259.184 1102.06L229.539 1091.45ZM273.936 1122.43L265.671 1121.83L269.662 1131.39L271.805 1139.37L274.282 1142.85L275.291 1147.38L283.4 1159.94L279.485 1141.65L277.217 1139.63C274.733 1136.89 279.864 1134.76 272.955 1131.39C273.026 1127.71 270.843 1124.22 273.936 1122.43ZM284.888 1132.94C283.44 1133.11 279.037 1137.53 283.462 1138.6C284.109 1138.75 285.544 1149.85 286.547 1149.69C288.252 1149.41 287.821 1134.45 284.888 1132.94ZM308.079 1146.18L308.586 1177.09C318.157 1189.26 318.542 1203.73 323.28 1217.12C322.983 1202.23 319.201 1186.41 328.347 1174.05L309.599 1148.2L308.079 1146.18ZM338.482 1179.62C338.195 1190.23 338.132 1201.06 337.215 1211.03C350.268 1224.58 357.791 1238.91 366.351 1253.09C361.969 1235.69 357.466 1218.3 355.71 1200.9C346.662 1195.9 343.349 1187.07 337.975 1179.62H338.482ZM370.911 1208.5C372.124 1195.16 375.974 1181.81 380.538 1168.47C384.961 1182.48 393.737 1194.62 393.713 1210.53C390.987 1228.94 385.629 1247.35 377.498 1265.76C372.795 1248.1 371.56 1231.24 370.911 1208.5ZM372.431 1272.09C359.608 1262.88 343.201 1245.82 332.908 1227.76C332.83 1236.54 335.506 1245.32 332.401 1254.11C339.875 1260.06 348.297 1296.99 353.683 1320.99C359.851 1304.66 352.201 1283.31 372.431 1272.09ZM386.112 1278.43C393.172 1267.01 399.138 1252.31 404.86 1236.88L442.864 1281.47C435.017 1284.55 427.748 1291.1 420.568 1298.19C418.573 1306.32 413.605 1319.12 406.887 1334.67C402.694 1314.67 404.821 1290.16 387.632 1279.44L386.112 1278.43ZM401.82 1207.49C404.407 1185.33 398.449 1173.43 394.726 1158.84L404.86 1176.07L401.313 1181.14L405.874 1187.22L409.421 1199.38L411.954 1210.53C409.541 1209.79 407.433 1212.06 401.82 1207.49ZM446.917 1213.06L457.506 1197.27L462.625 1222.69L446.917 1213.06ZM442.864 1223.2C450.388 1224.45 464.036 1225.73 457.558 1229.53L462.625 1241.44C455.906 1243.67 458.475 1249.72 463.132 1256.64C465.799 1260.69 464.719 1264.75 464.145 1268.8L448.944 1258.67L426.877 1240.65C432.208 1234.83 438.863 1229.01 442.864 1223.2ZM464.652 1183.67C472.591 1169.48 482.121 1142.26 492.514 1139.89L464.652 1183.67ZM502.988 1131.01L509.293 1133.15L512.435 1150.59L514.816 1158.84L508.229 1166.44H504.175L502.655 1181.14L499.108 1175.06L470.226 1209.51L464.145 1186.71L502.988 1131.01ZM467.692 1227.25L492.014 1193.81L495.561 1200.9L486.441 1217.62L492.521 1234.34L470.226 1265.76L468.199 1228.77L467.692 1227.25ZM479.347 1278.93L488.016 1271.95L492.374 1282.91C492.041 1272.76 499.948 1272.96 488.617 1264.42L519.377 1222.18L516.336 1246.5L505.695 1263.23L502.655 1295.66L480.36 1279.44L479.347 1278.93ZM496.568 1207.18C499.339 1212.6 502.486 1218.02 502 1223.44C497.245 1225.87 496.16 1226.1 494.655 1226.58L493.125 1218.21C493.799 1212.88 496.066 1212.73 496.568 1207.18ZM510.763 1213.82L511.776 1189.75L518.87 1177.59L519.377 1206.47L510.763 1213.82ZM533.565 1183.67V1162.39L547.089 1154.28C544.619 1164.07 539.378 1173.87 533.565 1183.67Z" stroke="#060602" stroke-opacity="0.935961" stroke-width="2.7" stroke-linecap="round" stroke-linejoin="round"/>
<path fill-rule="evenodd" clip-rule="evenodd" d="M417.425 1477.58C416.094 1477.32 415.704 1476.18 414.201 1468.18L412.491 1459.08L409.445 1458.86L406.4 1458.64V1454.38V1450.13H409.224C410.777 1450.13 412.193 1449.88 412.37 1449.59C412.547 1449.29 411.451 1440.02 409.934 1428.99C408.417 1417.95 407.163 1408.44 407.146 1407.84C407.13 1407.24 405.322 1405.33 403.13 1403.58L399.143 1400.39L402.46 1398.71L405.777 1397.02L405.378 1393.3C405.159 1391.25 404.63 1385.22 404.203 1379.9C403.776 1374.58 401.829 1359.58 399.877 1346.58L396.327 1322.93L390.272 1310.51C385.468 1300.66 383.955 1298.15 382.947 1298.34C381.782 1298.57 381.677 1299.77 381.677 1312.91C381.677 1320.79 381.959 1333.68 382.302 1341.56C382.646 1349.44 382.729 1355.71 382.487 1355.48C381.786 1354.82 379.291 1339.46 378.422 1330.46C377.95 1325.56 377.825 1318.07 378.115 1312C378.787 1297.9 378.28 1298 368.126 1314.04L360.371 1326.28L360.004 1332.17C359.766 1335.98 360.208 1342.97 361.254 1351.95C363.65 1372.52 362.822 1383.48 357.957 1395.64C357.32 1397.23 356.554 1398.53 356.255 1398.53C355.402 1398.53 353.372 1390.53 353.372 1387.17C353.372 1385.5 354.032 1382.85 354.838 1381.27C355.95 1379.09 356.253 1377.32 356.092 1373.96C355.841 1368.72 354.977 1368.2 351.002 1370.9C349.546 1371.88 348.34 1372.62 348.321 1372.53C348.193 1371.95 346.737 1357.19 346.433 1353.39C346.226 1350.79 346.6 1344.58 347.28 1339.35L348.498 1329.96L341.219 1305.67C329.016 1264.94 329.855 1267.39 328.167 1267.39C326.457 1267.39 326.42 1266.68 328.966 1283.16C330.762 1294.79 331.764 1314.95 330.582 1315.68C330.089 1315.98 329.493 1315.06 329.001 1313.23C328.422 1311.08 327.888 1310.36 326.998 1310.53C326.102 1310.71 325.449 1312.36 324.501 1316.84C323.195 1323.02 321.451 1326.8 320.421 1325.69C320.107 1325.36 319.688 1319.28 319.49 1312.18C319.034 1295.88 318.263 1292.14 314.963 1290.19C312.636 1288.82 312.554 1288.63 313.066 1285.78C313.36 1284.14 313.584 1277 313.563 1269.9C313.532 1259.22 313.117 1254.18 311.15 1240.57L308.774 1224.14L304.968 1216.38C302.875 1212.12 300.783 1206.78 300.321 1204.51C297.921 1192.76 295.48 1188.96 290.337 1188.96H287.556L287.951 1184.25C288.399 1178.9 286.987 1172.89 284.277 1168.59C280.756 1163.02 272.808 1157.58 266.762 1156.61C263.91 1156.16 263.889 1156.13 264.996 1154.44C265.924 1153.03 265.979 1152.19 265.315 1149.55C264.33 1145.64 264.284 1140.28 265.207 1137.05C267.005 1130.79 260.141 1119.58 242.786 1100.43C239.036 1096.29 236.068 1092.81 236.19 1092.68C236.313 1092.56 241.551 1095.03 247.829 1098.18C258.683 1103.61 261.825 1104.48 260.763 1101.75C260.555 1101.22 254.713 1098.05 247.78 1094.7C236.319 1089.16 235.206 1088.46 235.526 1086.99C235.719 1086.1 236.077 1083.93 236.32 1082.15L236.762 1078.93H230.931C225.567 1078.93 225.101 1079.05 225.101 1080.37C225.101 1083.04 227.956 1092.18 229.042 1092.98C229.633 1093.42 230.103 1094.55 230.085 1095.49C230.056 1097.01 229.614 1096.73 226.249 1093.08C223.168 1089.75 222.017 1088.96 220.191 1088.96C218.157 1088.96 217.935 1088.75 217.935 1086.79C217.935 1082.05 210.573 1071.76 207.186 1071.76C206.398 1071.76 205.753 1071.4 205.753 1070.95C205.753 1069.84 208.823 1052.12 209.075 1051.79C209.186 1051.64 210.552 1052.29 212.11 1053.22C213.696 1054.18 217.154 1057.8 219.968 1061.45C224.575 1067.44 225.282 1068.06 228.452 1068.85C230.353 1069.33 237.068 1072.41 243.374 1075.7C249.68 1078.99 256.676 1082.21 258.921 1082.85C262.964 1084.01 262.989 1084.04 261.608 1085.42C260.842 1086.19 260.234 1087.22 260.257 1087.71C260.281 1088.2 266.103 1093.25 273.195 1098.93C284.252 1107.78 286.232 1109.11 287.085 1108.25C287.935 1107.38 287.265 1104.29 282.486 1086.99C279.41 1075.86 276.978 1066.75 277.081 1066.75C277.185 1066.75 280.046 1068.02 283.439 1069.58C288.087 1071.72 289.783 1072.88 290.321 1074.3C290.714 1075.33 293.356 1086.68 296.192 1099.53L301.35 1122.88L305.203 1127.24L309.056 1131.6L308.636 1136.44C308.405 1139.1 308.496 1141.27 308.837 1141.27C310.234 1141.27 316.281 1147.41 320.516 1153.13C325.407 1159.73 327.332 1160.67 327.062 1156.3C326.38 1145.3 326.045 1121.32 326.471 1113.94L326.992 1104.91L329.561 1102.26C333.486 1098.22 335.832 1097.24 341.548 1097.25C346.439 1097.26 355.521 1099.43 355.521 1100.59C355.521 1100.89 354.086 1101.14 352.331 1101.14C345.374 1101.14 343.555 1103.64 344.823 1111.46C345.634 1116.46 344.733 1125.28 339.463 1163.94C339.085 1166.71 340.082 1167.79 343.035 1167.79C344.286 1167.79 346.261 1167.98 347.424 1168.21C349.489 1168.62 349.531 1168.72 349.233 1172.33C348.849 1177 350.761 1182.65 355.219 1190.02C359.564 1197.21 363.07 1201.33 364.041 1200.38C365.135 1199.32 375.375 1170.49 375.933 1166.9C376.758 1161.6 376.701 1161.66 380.232 1161.94C382.59 1162.13 383.568 1161.91 383.864 1161.14C385.355 1157.26 374.275 1124.6 368.202 1114.98C366.367 1112.08 366.352 1111.96 367.73 1111.53C368.514 1111.28 369.957 1109.89 370.937 1108.45C372.683 1105.88 372.72 1105.87 372.72 1107.73C372.72 1110.71 373.392 1111.77 375.829 1112.6C377.537 1113.19 379.882 1115.8 385.363 1123.21C401.77 1145.39 408.075 1155.38 411.05 1163.91C412 1166.63 413.236 1168.96 413.797 1169.08C415.448 1169.42 427.492 1149.13 429.387 1142.8C430.182 1140.15 430.027 1139.58 426.073 1130.79C422.064 1121.88 421.913 1121.32 421.592 1114.22L421.26 1106.88L422.967 1106.89C425.727 1106.91 426.237 1107.7 426.652 1112.61C426.872 1115.22 428.522 1121.81 430.401 1127.59C432.246 1133.26 433.602 1138.59 433.413 1139.41C431.382 1148.33 429.524 1153.24 424.573 1162.8C419.153 1173.26 418.798 1173.76 415.178 1175.82C413.109 1176.99 411.416 1178.43 411.416 1179C411.416 1179.58 412.363 1185.43 413.52 1192.01C414.678 1198.59 416.024 1208.09 416.512 1213.13C417.363 1221.91 418.1 1224.18 419.748 1223.1C422.106 1221.56 429.419 1210.22 431.4 1205.04C432.627 1201.82 433.63 1198.86 433.63 1198.45C433.63 1198.01 434.489 1197.88 435.749 1198.13C437.497 1198.48 438.103 1198.21 439.217 1196.61C441.334 1193.56 451.545 1175.32 451.545 1174.59C451.545 1174.23 448.607 1167.16 445.015 1158.89L438.485 1143.84L439.956 1128.82C441.407 1114 441.455 1113.77 443.53 1111.7C445.294 1109.93 445.997 1109.67 447.873 1110.08L450.112 1110.57L450.118 1117.15C450.122 1121.71 449.553 1126.18 448.259 1131.77L446.393 1139.82L448.687 1142.72C451.523 1146.3 453.175 1150.58 454.77 1158.47C456.13 1165.21 456.881 1167.07 458.235 1167.07C459.097 1167.07 462.899 1161.11 468.059 1151.66C471.799 1144.82 475.106 1140.66 480.053 1136.58L484.663 1132.78L487.43 1135.69L490.197 1138.59L488.35 1140.05C485.318 1142.43 483.772 1144.25 480.431 1149.35C477.195 1154.29 463.566 1181.78 462.792 1184.92C462.548 1185.91 463.398 1190.49 464.787 1195.67C466.118 1200.63 467.556 1206.03 467.983 1207.66C468.409 1209.3 469.234 1210.82 469.814 1211.04C470.543 1211.32 475.125 1206.36 484.624 1194.99C492.188 1185.94 498.562 1178.54 498.788 1178.54C499.014 1178.54 499.761 1179.54 500.449 1180.74C501.246 1182.14 502.158 1182.86 502.958 1182.7C503.996 1182.51 504.339 1181.22 504.931 1175.31C505.637 1168.25 505.677 1168.14 507.594 1167.92C508.949 1167.77 510.621 1166.4 513.097 1163.44C516.435 1159.45 516.609 1159.04 515.924 1156.86C515.522 1155.58 514.162 1149.4 512.901 1143.12L510.608 1131.72L506.761 1130.41C504.309 1129.58 502.622 1129.35 502.108 1129.77C501.63 1130.17 500.879 1130.18 500.27 1129.81C498.929 1128.98 498.865 1129.02 506.253 1126.27L512.59 1123.92L515.432 1126.68C522.242 1133.31 526.787 1143.05 526.787 1151C526.787 1154.33 527.073 1155.76 527.791 1156.04C528.343 1156.25 531.849 1154.31 535.581 1151.72C545.76 1144.67 552.358 1141.76 558.405 1141.64C561.102 1141.58 563.507 1141.34 563.749 1141.1C563.992 1140.85 563.514 1138.85 562.687 1136.64C560.934 1131.95 560.766 1125.9 562.203 1119.2C562.736 1116.72 563.289 1114.57 563.432 1114.43C563.575 1114.29 566.39 1113.54 569.687 1112.76L575.682 1111.34L575.243 1115.02C575.001 1117.04 574.596 1122.6 574.343 1127.38C573.74 1138.74 574.159 1139.02 580.851 1131.72L585.906 1126.21L598.61 1121.22C607.959 1117.56 613.236 1114.99 618.595 1111.52C626.666 1106.28 628.972 1106.11 625.061 1111.05C622.598 1114.16 615.012 1121.37 612.403 1123.08C611.495 1123.67 610.223 1125.27 609.576 1126.64C608.267 1129.4 589.887 1145.74 570.184 1161.66L558.045 1171.47L544.166 1195.88L530.288 1220.29L531.171 1223.74C532.022 1227.06 531.977 1227.29 529.958 1230.13C528.805 1231.75 527.544 1233.53 527.155 1234.1C526.644 1234.84 526.867 1235.55 527.965 1236.64L529.482 1238.16L527.04 1244.22C525.698 1247.55 524.79 1250.58 525.023 1250.96C525.256 1251.33 524.781 1252.49 523.967 1253.52C522.555 1255.32 522.488 1256.29 522.488 1274.76V1294.12L520.852 1291.69C519.053 1289.01 516.477 1288.25 514.383 1289.78C513.142 1290.69 513.138 1291.03 514.3 1297.84C515.222 1303.25 515.306 1305.02 514.652 1305.24C514.179 1305.4 512.927 1306.27 511.87 1307.18C509.968 1308.82 509.948 1308.94 510.029 1317.68C510.083 1323.53 510.591 1328.72 511.53 1333.05L512.95 1339.59L509.974 1341.04L506.998 1342.48L506.112 1350.11C505.625 1354.3 504.971 1358.42 504.659 1359.26C503.646 1362 503.275 1359.6 503.834 1353.93C504.663 1345.52 503.527 1341.25 500.452 1341.21C499.96 1341.2 499.557 1341.07 499.557 1340.91C499.557 1340.74 498.915 1335.18 498.13 1328.54C496.907 1318.19 496.239 1315.14 493.435 1307.16L490.166 1297.85L483.23 1290.86C479.415 1287.02 475.875 1283.88 475.362 1283.88C473.712 1283.88 473.614 1285.77 474.772 1295.27C475.464 1300.95 475.898 1310.01 475.88 1318.42L475.851 1332.25L473.835 1334.6L471.82 1336.96L470.355 1332.81C469.096 1329.24 468.827 1326.2 468.436 1311.11C468.049 1296.16 467.764 1292.89 466.512 1289.07C464.878 1284.09 464.464 1283.89 459.409 1285.67C456.652 1286.65 455.93 1286.64 452.241 1285.6C449.985 1284.97 447.696 1284.56 447.155 1284.7C446.613 1284.84 444.397 1286.84 442.229 1289.16L438.288 1293.36L438.408 1318.18L438.528 1342.99L436.175 1331.89C434.88 1325.78 433.433 1318.93 432.958 1316.66C432.289 1313.47 431.801 1312.54 430.789 1312.54C429.003 1312.54 428.88 1313 426.687 1328.02C425.295 1337.55 424.565 1340.91 424.072 1340.03C423.379 1338.79 423.937 1320.84 424.764 1317.74C425.23 1316 423.339 1314.66 422.13 1315.87C421.769 1316.23 419.695 1326.1 417.52 1337.81L413.565 1359.09V1375.54V1391.99L415.842 1395.65L418.119 1399.31L416.559 1402.52C415.064 1405.6 414.998 1406.62 414.998 1426.78C414.998 1450.73 414.359 1448.69 421.865 1448.69H426.464V1452.28V1455.86H421.784C416.563 1455.86 415.603 1456.69 417.086 1459.95C417.55 1460.97 418.393 1465.06 418.959 1469.04C420.158 1477.47 420.194 1478.11 419.477 1477.98C419.181 1477.92 418.258 1477.74 417.425 1477.58L417.425 1477.58ZM408.91 1334.03C410.604 1330.76 418.15 1311.5 420.291 1304.98C421.895 1300.1 422.763 1298.65 425.938 1295.58C431.046 1290.64 436.795 1286.26 440.933 1284.17C442.828 1283.2 444.379 1282.01 444.379 1281.52C444.379 1280.23 405.807 1235.15 404.704 1235.15C404.184 1235.15 401.803 1240.19 399.208 1246.79C396.69 1253.2 392.327 1263 389.514 1268.58L384.398 1278.73L388.688 1282.5C397.129 1289.94 399.586 1296.35 402.88 1319.57C404.091 1328.1 405.236 1335.33 405.425 1335.63C406.174 1336.85 407.854 1336.07 408.91 1334.03ZM356.368 1317.39C357.031 1314.73 357.934 1308.77 358.375 1304.13C359.315 1294.23 360.56 1288.78 362.964 1284.04C364.671 1280.67 369.558 1275.54 372.616 1273.9C374.978 1272.64 374.486 1271.4 370.388 1268.31C360.13 1260.56 346.956 1246.21 338.966 1234.07C333.581 1225.89 333.503 1225.8 332.249 1226.28C331.365 1226.62 331.269 1228.44 331.632 1237.9C331.903 1244.95 331.782 1250.12 331.307 1251.82C330.63 1254.23 330.734 1254.73 332.3 1256.6C336.786 1261.93 342.654 1280.54 350.146 1313.22C352.286 1322.55 352.362 1322.73 353.976 1322.43C354.786 1322.28 355.547 1320.67 356.368 1317.39ZM503.674 1296.6C504.064 1296.1 505.052 1288.51 505.87 1279.71L507.357 1263.72L512.687 1255.35L518.017 1246.97L519.536 1234.69C521.372 1219.85 521.363 1220.82 519.664 1220.82C518.669 1220.82 513.938 1226.75 503.004 1241.73C494.605 1253.23 487.465 1263.08 487.138 1263.62C486.724 1264.31 487.541 1265.54 489.826 1267.66C493.367 1270.96 493.495 1271.3 492.348 1274.32L491.588 1276.31L490.233 1273.29C489.488 1271.62 488.528 1270.26 488.1 1270.26C486.721 1270.26 478.059 1277.65 478.073 1278.81C478.084 1279.76 501.192 1297.4 502.515 1297.47C502.762 1297.48 503.284 1297.09 503.674 1296.6ZM466.075 1267.03C467.02 1262.66 466.138 1258.34 463.37 1253.78C459.33 1247.13 459.315 1245.51 463.266 1242.78C464.542 1241.9 464.504 1241.64 462.337 1236.44C460.753 1232.63 460.22 1230.44 460.554 1229.11C461.263 1226.28 459.321 1224.65 453.8 1223.43C446.549 1221.82 441.513 1221.29 441.513 1222.12C441.513 1222.52 437.804 1226.73 433.272 1231.47C428.74 1236.22 425.031 1240.4 425.031 1240.75C425.031 1241.85 446.327 1258.83 455.092 1264.72C459.645 1267.78 463.839 1270.19 464.413 1270.09C464.987 1269.98 465.734 1268.61 466.075 1267.03ZM382.53 1257.72C387.413 1245.49 390.927 1233.69 393.54 1220.74C395.458 1211.23 395.592 1209.69 394.92 1204.94C393.835 1197.28 393.183 1195.19 387.793 1182.12C385.112 1175.62 382.698 1169.57 382.429 1168.68C382.147 1167.76 381.366 1167.07 380.59 1167.07C379.504 1167.07 378.737 1168.63 376.655 1175.07C373.597 1184.53 370.974 1195.34 369.832 1203.18C368.395 1213.05 370.779 1243.39 374.257 1259.48C375.96 1267.37 376.039 1267.55 377.624 1267.25C378.407 1267.11 380.078 1263.86 382.53 1257.72ZM482.359 1251.68C488.468 1243.04 493.56 1235.38 493.676 1234.64C493.791 1233.9 492.634 1229.8 491.106 1225.53L488.327 1217.76L491.232 1212.41C494.473 1206.45 495.542 1206.58 493.083 1212.64C491.783 1215.84 491.573 1217.34 491.961 1220.64C492.942 1228.98 493.44 1229.31 500.186 1226.17L504.039 1224.38L503.556 1220.63C502.897 1215.5 498.327 1205.77 496.578 1205.77C494.978 1205.77 494.961 1205.55 496.347 1202.87C497.378 1200.88 497.321 1200.54 495.261 1196.46C494.066 1194.09 492.636 1192.15 492.084 1192.15C491.533 1192.15 485.5 1199.81 478.677 1209.17C467.034 1225.14 466.283 1226.37 466.464 1229.06C466.57 1230.63 467.088 1239.55 467.616 1248.87C468.143 1258.2 468.793 1266.18 469.059 1266.61C469.326 1267.04 469.929 1267.39 470.398 1267.38C470.867 1267.37 476.25 1260.31 482.359 1251.68ZM367.704 1253.15C367.704 1252.41 366.255 1245.82 364.484 1238.51C361.223 1225.04 357.671 1206.39 357.671 1202.73C357.671 1201.51 357.047 1200.25 356.059 1199.49C351.84 1196.23 346.906 1190.49 343.271 1184.63C340.494 1180.15 338.856 1178.18 337.903 1178.18C336.764 1178.18 336.566 1178.63 336.735 1180.81C336.847 1182.26 336.621 1189.83 336.234 1197.65L335.53 1211.86L338.3 1214.73C343.14 1219.73 350.682 1230.39 358.051 1242.63C362.924 1250.72 365.594 1254.49 366.45 1254.49C367.199 1254.49 367.704 1253.96 367.704 1253.15ZM464.075 1223.5C464.242 1223.01 463.169 1216.64 461.691 1209.35C459.392 1198.01 458.816 1196.09 457.703 1196.09C456.849 1196.09 454.416 1198.99 450.61 1204.53C445.515 1211.95 444.943 1213.09 445.869 1214.01C447.457 1215.6 461.801 1224.35 462.854 1224.38C463.359 1224.39 463.909 1224 464.075 1223.5ZM324.345 1205.23C323.764 1189.86 324.307 1185.48 327.637 1178.68C328.854 1176.2 329.656 1173.66 329.419 1173.04C329.182 1172.42 324.558 1165.84 319.145 1158.4C312.911 1149.84 308.841 1144.88 308.047 1144.87C307.357 1144.86 306.77 1145.26 306.742 1145.75C306.714 1146.25 306.732 1153.58 306.782 1162.06C306.87 1177.05 306.918 1177.53 308.587 1179.97C311.896 1184.81 314.661 1191.9 317.536 1202.9C321.553 1218.28 321.696 1218.67 323.403 1218.67C324.826 1218.67 324.844 1218.41 324.345 1205.23H324.345ZM517.042 1210.68L521.271 1206.89L520.84 1191.89C520.582 1182.9 520.106 1176.58 519.652 1176.13C518.609 1175.09 517.587 1176.29 513.559 1183.29L510.206 1189.13L509.603 1201.57C508.814 1217.86 508.911 1217.97 517.042 1210.68ZM413.031 1208.99C412.698 1203.6 407.763 1186.95 405.62 1184L403.6 1181.21L405.144 1178.53L406.688 1175.85L401.265 1166.62C396.142 1157.91 394.156 1155.73 393.317 1157.92C393.117 1158.44 394.211 1163.21 395.749 1168.52C399.668 1182.06 400.761 1188.87 400.63 1198.96C400.569 1203.69 400.552 1207.93 400.593 1208.38C400.736 1209.97 406.595 1212.26 409.983 1212.05L413.207 1211.86L413.031 1208.99H413.031ZM536.127 1182.66C539.524 1177.15 545.48 1164.77 547.195 1159.66C550.047 1151.17 549.232 1150.91 539.003 1157.09L531.804 1161.44V1172.73C531.804 1178.95 532.019 1184.25 532.282 1184.51C533.332 1185.56 534.763 1184.87 536.127 1182.66ZM302.188 1163.85C301.677 1161.09 300.67 1155.67 299.95 1151.82C298.8 1145.66 298.752 1144.14 299.549 1139.39L300.458 1133.99L292.072 1122.88C287.46 1116.78 283.161 1111.6 282.52 1111.37C281.879 1111.14 280.802 1110.49 280.127 1109.91C279.452 1109.33 278.367 1109.06 277.717 1109.31C276.738 1109.68 276.583 1110.6 276.813 1114.67C277.064 1119.12 277.43 1120.11 280.735 1125.3L284.38 1131.03L282.24 1132.75C279.863 1134.67 279.315 1138.08 281.167 1139.43C281.753 1139.86 282.739 1142.43 283.357 1145.14C284.651 1150.81 285.467 1152 287.286 1150.86C288.217 1150.27 288.608 1148.74 288.878 1144.63C289.33 1137.74 290.544 1138.1 291.681 1145.46C292.537 1151 293.649 1154.46 297.581 1163.85C300.193 1170.08 300.973 1171.06 302.268 1169.73C302.922 1169.06 302.904 1167.71 302.188 1163.85H302.188ZM284.829 1160.8C285.013 1160.5 284.254 1155.95 283.142 1150.7C281.725 1144 280.673 1140.66 279.625 1139.55C278.745 1138.61 278.129 1137 278.129 1135.64C278.129 1134.12 277.542 1132.78 276.432 1131.74C274.313 1129.78 273.431 1126.13 274.616 1124.23C276.341 1121.47 275.031 1120.49 269.595 1120.49C266.847 1120.49 264.422 1120.78 264.205 1121.13C263.989 1121.48 264.742 1124.02 265.879 1126.78C267.016 1129.53 268.489 1133.68 269.153 1135.99C269.816 1138.31 270.896 1141.01 271.552 1141.99C272.208 1142.98 273.069 1144.94 273.466 1146.36C274.521 1150.13 281.835 1161.26 283.282 1161.3C283.949 1161.32 284.645 1161.09 284.829 1160.8ZM226.118 1072.76C228.551 1071.83 227.339 1069.81 223.614 1068.59C221.614 1067.94 218.47 1066.46 216.628 1065.31C213.921 1063.63 213.102 1063.4 212.365 1064.13C211.47 1065.02 211.613 1065.75 213.983 1072.3C214.324 1073.24 223.915 1073.61 226.118 1072.76Z" fill="white"/>
<path fill-rule="evenodd" clip-rule="evenodd" d="M347.101 1051.89C330.284 1047.51 330.619 1047.63 330.619 1045.96C330.619 1042.36 312.377 1017.2 286.147 984.63C268.656 962.91 250.112 941.219 248.124 940.155C246.875 939.487 246.315 939.66 244.692 941.215L242.752 943.074L240.965 941.1C238.459 938.332 238.971 936.147 242.346 935.21C246.235 934.13 253.317 934.31 259.176 935.637C263.536 936.625 264.777 937.263 267.2 939.761C278.715 951.631 311.893 989.339 320.092 999.875C322.477 1002.94 324.773 1005.33 325.194 1005.19C325.616 1005.05 326.037 1003.03 326.13 1000.7C327.167 974.656 328.663 946.618 329.259 942.07C330.127 935.437 332.175 929.551 334.633 926.631C337.014 923.801 341.879 921.57 345.67 921.57H348.802L346.919 923.541C342.323 928.349 340.851 936.52 343.256 943.872C344.184 946.708 344.345 949.199 344.032 955.831C343.591 965.153 341.903 972.16 338.449 979.003C336.697 982.472 336.31 984.074 336.429 987.366C336.622 992.737 336.658 992.806 340.726 995.792L344.234 998.368V1019.48C344.234 1043.56 344.17 1043.25 349.958 1046.97C353.345 1049.14 355.7 1051.56 355.7 1052.87C355.7 1053.73 352.965 1053.42 347.101 1051.89Z" fill="white"/>
<path fill-rule="evenodd" clip-rule="evenodd" d="M421.791 1066.05C415.336 1065.06 415.761 1065.77 410.102 1046.4C405.144 1029.43 404.18 1026.91 402.659 1026.91C401.931 1026.91 400.258 1029.63 397.916 1034.61C392.815 1045.47 388.132 1056.32 387.583 1058.54C387.224 1059.99 386.782 1060.34 385.682 1060.05C384.621 1059.77 384.359 1059.28 384.675 1058.16C384.91 1057.33 385.421 1054.23 385.812 1051.27C386.203 1048.32 386.797 1045.81 387.133 1045.69C390.291 1044.63 393.324 1034.73 394.149 1022.79C394.439 1018.58 394.961 1015.87 395.576 1015.36C396.109 1014.91 396.546 1013.99 396.546 1013.3C396.546 1012.61 392.534 1004.67 387.63 995.65C382.726 986.633 373.435 969.421 366.983 957.4L355.251 935.544L357.149 934.732C359.349 933.791 362.149 930.491 362.149 928.838C362.149 927.933 362.35 927.99 363.131 929.114C367.671 935.646 397.401 992.577 401.385 1002.37C402.499 1005.1 403.298 1006.13 404.32 1006.13C405.299 1006.13 408.822 1002.07 415.978 992.692C421.619 985.302 428.018 977.243 430.2 974.784C437.748 966.274 441.429 958.731 443.903 946.708C444.672 942.97 445.698 939.652 446.184 939.336C446.669 939.02 449.162 938.099 451.724 937.288C456.764 935.694 463.203 935.868 461.929 937.565C461.58 938.03 460.24 940.877 458.951 943.893C457.663 946.908 455.67 950.274 454.524 951.372C452.208 953.591 451.886 955.331 453.536 956.701C454.479 957.483 454.205 957.802 451.573 958.98C446.006 961.473 434.538 974.102 419.255 994.57C409.869 1007.14 405.145 1014.06 405.145 1015.23C405.145 1016.2 405.996 1019.14 407.037 1021.77C409.139 1027.08 422.122 1053.37 424.711 1057.56C425.62 1059.03 427.247 1061.76 428.325 1063.64L430.286 1067.04L428.644 1066.95C427.74 1066.89 424.656 1066.49 421.791 1066.05V1066.05Z" fill="white"/>
<path fill-rule="evenodd" clip-rule="evenodd" d="M500.273 1073.69C499.189 1073.53 498.302 1073.09 498.302 1072.72C498.302 1072.36 497.819 1072.05 497.227 1072.05C495.959 1072.05 495.84 1069.04 496.838 1062.14C497.609 1056.8 497.285 1055.57 495.108 1055.57C491.321 1055.57 483.908 1063.23 481.359 1069.78C480.358 1072.35 479.897 1072.81 478.657 1072.48C477.835 1072.26 476.252 1072.07 475.139 1072.06C473.147 1072.05 473.19 1071.97 477.779 1066.61C483.201 1060.28 492.322 1047.46 495.009 1042.39C497.412 1037.85 497.353 1036.31 494.645 1032.92C486.256 1022.41 474.72 985.537 471.771 959.806C470.833 951.623 471.103 950.583 474.832 948.007C476.114 947.121 478.836 944.841 480.882 942.941C485.291 938.844 486.388 938.557 485.187 941.814C484.028 944.959 484.112 967.935 485.315 976.748C488.573 1000.61 494.781 1019.18 501.595 1025.46C505.069 1028.67 505.945 1028.86 509.266 1027.18C513.627 1024.98 530.844 1011.56 547.547 997.35C553.472 992.308 557.652 989.451 563.433 986.494C567.749 984.287 572.031 982.483 572.95 982.485C574.875 982.49 578.809 984.86 578.089 985.58C577.189 986.48 574.219 986.07 573.804 984.989C573.056 983.04 571.56 983.864 569.571 987.318C562.898 998.903 561.991 999.855 545.342 1012.75C520.101 1032.29 508.848 1041.11 506.619 1043.09L504.545 1044.93L504.693 1059.57C504.857 1075.76 505.269 1074.45 500.273 1073.69Z" fill="white"/>
<path fill-rule="evenodd" clip-rule="evenodd" d="M563.871 1073.67C565.922 1068.65 567.304 1062.75 569.198 1050.92C572.032 1033.21 574.183 1016.23 574.735 1007.2L575.177 999.977L579.556 1000.01C581.965 1000.02 584.71 999.758 585.657 999.417L587.379 998.796L586.947 1008.73C586.5 1018.99 583.766 1039.34 579.866 1061.43C577.304 1075.94 578.145 1074.9 568.989 1074.91C563.908 1074.92 563.409 1074.8 563.871 1073.67Z" fill="white"/>
<path fill-rule="evenodd" clip-rule="evenodd" d="M269.771 1026.89C265.273 1024.96 261.307 1023.09 260.958 1022.74C260.608 1022.4 259.672 1018.93 258.877 1015.03C256.07 1001.29 251.694 989.393 240.772 965.799C236.98 957.609 233.879 950.806 233.879 950.681C233.879 950.556 235.572 951.039 237.641 951.754C239.71 952.468 241.887 953.064 242.478 953.078C244.029 953.114 246.408 957.219 255.157 974.956C268.518 1002.05 280.546 1030.6 278.535 1030.45C278.213 1030.43 274.269 1028.83 269.771 1026.89Z" fill="white"/>
</g>
<defs>
<filter id="filter0_d" x="420.635" y="405.631" width="968.559" height="1402.04" filterUnits="userSpaceOnUse" color-interpolation-filters="sRGB">
<feFlood flood-opacity="0" result="BackgroundImageFix"/>
<feColorMatrix in="SourceAlpha" type="matrix" values="0 0 0 0 0 0 0 0 0 0 0 0 0 0 0 0 0 0 127 0"/>
<feOffset dx="5" dy="10"/>
<feGaussianBlur stdDeviation="5"/>
<feColorMatrix type="matrix" values="0 0 0 0 0 0 0 0 0 0 0 0 0 0 0 0 0 0 0.25 0"/>
<feBlend mode="normal" in2="BackgroundImageFix" result="effect1_dropShadow"/>
<feBlend mode="normal" in="SourceGraphic" in2="effect1_dropShadow" result="shape"/>
</filter>
<filter id="filter1_d" x="431" y="401.457" width="961" height="248.543" filterUnits="userSpaceOnUse" color-interpolation-filters="sRGB">
<feFlood flood-opacity="0" result="BackgroundImageFix"/>
<feColorMatrix in="SourceAlpha" type="matrix" values="0 0 0 0 0 0 0 0 0 0 0 0 0 0 0 0 0 0 127 0"/>
<feOffset dx="10" dy="10"/>
<feGaussianBlur stdDeviation="5"/>
<feColorMatrix type="matrix" values="0 0 0 0 0 0 0 0 0 0 0 0 0 0 0 0 0 0 0.25 0"/>
<feBlend mode="normal" in2="BackgroundImageFix" result="effect1_dropShadow"/>
<feBlend mode="normal" in="SourceGraphic" in2="effect1_dropShadow" result="shape"/>
</filter>
<filter id="filter2_d" x="909.5" y="612" width="483.5" height="669" filterUnits="userSpaceOnUse" color-interpolation-filters="sRGB">
<feFlood flood-opacity="0" result="BackgroundImageFix"/>
<feColorMatrix in="SourceAlpha" type="matrix" values="0 0 0 0 0 0 0 0 0 0 0 0 0 0 0 0 0 0 127 0"/>
<feOffset dx="10" dy="10"/>
<feGaussianBlur stdDeviation="5"/>
<feColorMatrix type="matrix" values="0 0 0 0 0 0 0 0 0 0 0 0 0 0 0 0 0 0 0.25 0"/>
<feBlend mode="normal" in2="BackgroundImageFix" result="effect1_dropShadow"/>
<feBlend mode="normal" in="SourceGraphic" in2="effect1_dropShadow" result="shape"/>
</filter>
<filter id="filter3_d" x="428.541" y="426.621" width="872.531" height="849.404" filterUnits="userSpaceOnUse" color-interpolation-filters="sRGB">
<feFlood flood-opacity="0" result="BackgroundImageFix"/>
<feColorMatrix in="SourceAlpha" type="matrix" values="0 0 0 0 0 0 0 0 0 0 0 0 0 0 0 0 0 0 127 0"/>
<feOffset dx="10" dy="5"/>
<feGaussianBlur stdDeviation="5"/>
<feColorMatrix type="matrix" values="0 0 0 0 0 0 0 0 0 0 0 0 0 0 0 0 0 0 0.25 0"/>
<feBlend mode="normal" in2="BackgroundImageFix" result="effect1_dropShadow"/>
<feBlend mode="normal" in="SourceGraphic" in2="effect1_dropShadow" result="shape"/>
</filter>
<linearGradient id="paint0_linear" x1="1441.5" y1="794" x2="717" y2="1680.5" gradientUnits="userSpaceOnUse">
<stop stop-color="#262626"/>
<stop offset="0.954888" stop-color="#262626"/>
<stop offset="1" stop-color="#2D2D2D" stop-opacity="0"/>
</linearGradient>
<linearGradient id="paint1_linear" x1="659.5" y1="1163" x2="960" y2="1412.5" gradientUnits="userSpaceOnUse">
<stop/>
<stop offset="1" stop-color="#262626"/>
</linearGradient>
<linearGradient id="paint2_linear" x1="833" y1="460.5" x2="1574.5" y2="676" gradientUnits="userSpaceOnUse">
<stop/>
<stop offset="1" stop-color="#C4C4C4" stop-opacity="0"/>
<stop offset="1" stop-color="#262626"/>
</linearGradient>
<linearGradient id="paint3_linear" x1="1285.5" y1="708" x2="1066.5" y2="1300.5" gradientUnits="userSpaceOnUse">
<stop stop-color="#262626"/>
<stop offset="1"/>
</linearGradient>
<clipPath id="clip0">
<rect width="1377.33" height="1913.33" fill="white"/>
</clipPath>
</defs>
</svg>
